<svg width="24" height="24" viewBox="0 0 24 24" fill="none" xmlns="http://www.w3.org/2000/svg"><path d="M12 4C9.5 4 7.5 5.5 7 7.5C5.5 7.8 4 9.5 4 11.5C4 13.5 5.2 15 6.5 15.5C6.8 17.5 8.5 19 11 19.5V12" stroke="#8b5cf6" stroke-width="1.4" stroke-linecap="round" fill="#8b5cf6" fill-opacity="0.06"/><path d="M12 4C14.5 4 16.5 5.5 17 7.5C18.5 7.8 20 9.5 20 11.5C20 13.5 18.8 15 17.5 15.5C17.2 17.5 15.5 19 13 19.5V12" stroke="#ec4899" stroke-width="1.4" stroke-linecap="round" fill="#ec4899" fill-opacity="0.06"/><circle cx="9" cy="9" r="0.7" fill="#06b6d4"/><circle cx="15" cy="9" r="0.7" fill="#06b6d4"/><circle cx="8" cy="13" r="0.7" fill="#fbbf24"/><circle cx="16" cy="13" r="0.7" fill="#fbbf24"/><circle cx="12" cy="11" r="0.8" fill="#22d3ee"/><line x1="9" y1="9" x2="12" y2="11" stroke="#06b6d4" stroke-width="0.4" opacity="0.4"/><line x1="15" y1="9" x2="12" y2="11" stroke="#06b6d4" stroke-width="0.4" opacity="0.4"/><line x1="8" y1="13" x2="12" y2="11" stroke="#fbbf24" stroke-width="0.4" opacity="0.4"/><line x1="16" y1="13" x2="12" y2="11" stroke="#fbbf24" stroke-width="0.4" opacity="0.4"/><path d="M12 19.5V21.5" stroke="#a78bfa" stroke-width="1.2" stroke-linecap="round" opacity="0.5"/></svg>